<svg xmlns="http://www.w3.org/2000/svg" data-name="Layer 1" viewBox="0 0 24 30" x="0px" y="0px"><title>pulse, pulses, heart beating, pulse rate, rate, hospital, medicine, clinic, computer, monitor,screen</title><path d="M12,21.911c2.261,0,6.146-2.238,9.655-8.546C23.583,9.9,23.1,6.39,20.4,4.2a6.745,6.745,0,0,0-5.966-1.1,4.709,4.709,0,0,0-2.449,1.729,4.789,4.789,0,0,0-2.651-1.7,6.755,6.755,0,0,0-6.2,1.48c-2.3,2.246-2.594,5.519-.794,8.755C5.854,19.673,9.739,21.911,12,21.911ZM4.188,5.682A5.057,5.057,0,0,1,7.643,4.415a5.1,5.1,0,0,1,1.308.165,3.091,3.091,0,0,1,2.327,2.144.751.751,0,0,0,1.444,0A3.133,3.133,0,0,1,14.89,4.532a5.241,5.241,0,0,1,4.568.834c2.129,1.725,2.46,4.443.887,7.269C16.923,18.786,13.39,20.411,12,20.411s-4.923-1.625-8.345-7.776C2.183,9.988,2.377,7.454,4.188,5.682Z"/><path d="M6,13.75H9a.751.751,0,0,0,.671-.415l1.093-2.186,1.508,6.033a.75.75,0,0,0,1.4.153l1.793-3.585H18a.75.75,0,0,0,0-1.5H15a.751.751,0,0,0-.671.415l-1.093,2.186L11.728,8.818a.75.75,0,0,0-1.4-.153L8.536,12.25H6a.75.75,0,0,0,0,1.5Z"/><text x="0" y="39" fill="#000000" font-size="5px" font-weight="bold" font-family="'Helvetica Neue', Helvetica, Arial-Unicode, Arial, Sans-serif">Created by Nursila</text><text x="0" y="44" fill="#000000" font-size="5px" font-weight="bold" font-family="'Helvetica Neue', Helvetica, Arial-Unicode, Arial, Sans-serif">from the Noun Project</text></svg>