<svg xmlns="http://www.w3.org/2000/svg" viewBox="0 0 48 48"><title>Digital Thermometer</title><g id="Digital_Thermometer" data-name="Digital Thermometer"><path d="M23.89,17.91l-.79-15c-.2-3.89-6-3.9-6.2,0l-.79,15C15.94,21,13,21.08,13,25.2V41a7,7,0,0,0,14,0V25.2C27,21.16,24.05,20.93,23.89,17.91ZM21.11,3.05l.15,3H18.74l.15-2.95A1.11,1.11,0,0,1,21.11,3.05ZM25,41a5,5,0,0,1-10,0c0-16.94-.43-17.16,1.26-18.85C18.56,19.86,18.11,18,18.63,8h2.74l.52,10C22.1,22,25,22,25,25.2Z"/><path d="M22,24c-3.58,0-5-.35-5,1V35a1,1,0,0,0,1,1c3.58,0,5,.35,5-1V25A1,1,0,0,0,22,24ZM21,34H19V26h2Z"/><path d="M20,38c-4,0-4,6,0,6S24,38,20,38Zm0,4a1,1,0,0,1,0-2A1,1,0,0,1,20,42Z"/><path d="M30,26h4a1,1,0,0,0,0-2H30A1,1,0,0,0,30,26Z"/><path d="M34,32H30a1,1,0,0,0,0,2h4A1,1,0,0,0,34,32Z"/><path d="M34,40H30a1,1,0,0,0,0,2h4A1,1,0,0,0,34,40Z"/><path d="M30,30h2a1,1,0,0,0,0-2H30A1,1,0,0,0,30,30Z"/><path d="M30,38h2a1,1,0,0,0,0-2H30A1,1,0,0,0,30,38Z"/></g></svg>