<svg xmlns="http://www.w3.org/2000/svg" viewBox="0 0 48 48"><title>Blood PRessure</title><g id="Blood_Pressure" data-name="Blood Pressure"><path d="M25.71,13.71l2-2a1,1,0,0,0-1.42-1.42l-2,2A1,1,0,0,0,25.71,13.71Z"/><path d="M46,19.57c0-2.28.41-4.61-2.09-5.41-1-6-9.91-5.24-9.91.84V40a6,6,0,0,1-12,0V34h1a1,1,0,0,0,1-1V29.82c2.44-.87,2-3.21,2-5.82,3.57,0,3,.59,3-5.26A7,7,0,0,0,26,6.08V3a3,3,0,0,0-3-3H3A3,3,0,0,0,0,3V27a3,3,0,0,0,3,3H18v3a1,1,0,0,0,1,1h1v6a8,8,0,0,0,16,0V15a3,3,0,0,1,5.88-.78c-2.25.91-1.88,3-1.88,5.35C36.25,24,38.07,34,43,34S49.73,24,46,19.57ZM27,22H23V19.71a7,7,0,0,0,4,0Zm3-9a5,5,0,1,1-5-5A5,5,0,0,1,30,13ZM3,28c-1.43,0-1,.3-1-25A1,1,0,0,1,3,2h7.11C7.22,4.82,8,6.71,8,23a7,7,0,0,0,2.11,5Zm7-5V7a5,5,0,0,1,5-5h8a1,1,0,0,1,1,1V6.08a7,7,0,0,0-3,12.66c0,5.87-.53,5.26,3,5.26v3a1,1,0,0,1-1,1H15A5,5,0,0,1,10,23Zm12,7v2H20V30ZM42,18.16V17a1,1,0,0,1,2,0C44,19.2,44.29,17.44,42,18.16ZM43,32c-2.94,0-4.31-8.22-1.32-11.32a1.62,1.62,0,0,1,2.64,0C47.31,23.77,45.94,32,43,32Z"/></g></svg>